# xmcd CD database file
#
# Track frame offsets:
#	150
#	17705
#	36091
#	44558
#	59100
#	78414
#	95408
#	109039
#	123172
#	142888
#	161618
#	183798
#
# Disc length: 2700 seconds
#
# Revision: 0
# Processed by: cddbd v1.4PL0 Copyright (c) Steve Scherf et al.
# Submitted via: CDex 1.50
#
DISCID=990a8a0c
DTITLE=Maryann Price - Jazzland
DYEAR=2000
DGENRE=Jazz
TTITLE0=Simple Life
TTITLE1=Sweet Kentucky Ham
TTITLE2=Time Night
TTITLE3=My Heart Belongs To Daddy
TTITLE4=The Apology
TTITLE5=It's Hard To Keep A Family Together
TTITLE6=Small Fry
TTITLE7=The Way I Feel About You
TTITLE8=One Horse Town
TTITLE9=News From Up The Street
TTITLE10=I Love You To Much
TTITLE11=Boogie Woogie Blue Plate
EXTD=YEAR: 2000
EXTT0=
EXTT1=
EXTT2=
EXTT3=
EXTT4=
EXTT5=
EXTT6=
EXTT7=
EXTT8=
EXTT9=
EXTT10=
EXTT11=
PLAYORDER=
